# xmcd CD database file
#
# Track frame offsets:
#	150
#	6051
#	13452
#	21715
#	28595
#	34534
#	40477
#	47222
#	54579
#	62385
#	68843
#	76549
#	83106
#	90055
#	96182
#	103734
#	111654
#	119930
#	128105
#	136088
#	144351
#	152468
#	160875
#	169183
#	173269
#	180864
#	188404
#	195473
#	203376
#	211112
#	218904
#	226209
#	234674
#	242822
#	250921
#	259163
#	267114
#	275132
#	282099
#	290222
#	298441
#	304385
#	310632
#	317943
#	325995
#	334017
#	342291
#
# Disc length: 4657 seconds
#
# Revision: 0
# Processed by: cddbd v1.5.2PL0 Copyright (c) Steve Scherf et al.
# Submitted via: CDex 1.51
#
DISCID=a5122f2f
DTITLE=Jazz Impuls - Jazz Dubbelconcerten Impuls
DYEAR=2006
DGENRE=Jazz
TTITLE0=Introductie
TTITLE1=Concert Nr 1
TTITLE2=Concert Nr 1
TTITLE3=Concert Nr 1
TTITLE4=Concert Nr 1
TTITLE5=Concert Nr 2
TTITLE6=Concert Nr 2
TTITLE7=Concert Nr 3
TTITLE8=Concert Nr 3
TTITLE9=Concert Nr 3
TTITLE10=Concert Nr 3
TTITLE11=Concert Nr 4
TTITLE12=Concert Nr 4
TTITLE13=Concert Nr 4
TTITLE14=Concert Nr 4
TTITLE15=Concert Nr 5
TTITLE16=Concert Nr 5
TTITLE17=Concert Nr 5
TTITLE18=Concert Nr 5
TTITLE19=Concert Nr 6
TTITLE20=Concert Nr 6
TTITLE21=Concert Nr 6
TTITLE22=Concert Nr 6
TTITLE23=Concert Nr 7
TTITLE24=Concert Nr 7
TTITLE25=Concert Nr 7
TTITLE26=Concert Nr 7
TTITLE27=Concert Nr 8
TTITLE28=Concert Nr 8
TTITLE29=Concert Nr 8
TTITLE30=Concert Nr 8
TTITLE31=Concert Nr 9
TTITLE32=Concert Nr 9
TTITLE33=Concert Nr 9
TTITLE34=Concert Nr 9
TTITLE35=Concert Nr 10
TTITLE36=Concert Nr 10
TTITLE37=Concert Nr 10
TTITLE38=Concert Nr 10
TTITLE39=Concert Nr 11
TTITLE40=Concert Nr 11
TTITLE41=Concert Nr 11
TTITLE42=Concert Nr 11
TTITLE43=Concert Nr 12
TTITLE44=Concert Nr 12
TTITLE45=Concert Nr 12
TTITLE46=Concert Nr 12
EXTD=YEAR: 2006
EXTT0=
EXTT1=
EXTT2=
EXTT3=
EXTT4=
EXTT5=
EXTT6=
EXTT7=
EXTT8=
EXTT9=
EXTT10=
EXTT11=
EXTT12=
EXTT13=
EXTT14=
EXTT15=
EXTT16=
EXTT17=
EXTT18=
EXTT19=
EXTT20=
EXTT21=
EXTT22=
EXTT23=
EXTT24=
EXTT25=
EXTT26=
EXTT27=
EXTT28=
EXTT29=
EXTT30=
EXTT31=
EXTT32=
EXTT33=
EXTT34=
EXTT35=
EXTT36=
EXTT37=
EXTT38=
EXTT39=
EXTT40=
EXTT41=
EXTT42=
EXTT43=
EXTT44=
EXTT45=
EXTT46=
PLAYORDER=
